#!OML:ASF X:\für Bonn\!DataBase\2005_08_11_Bastian_Final\c3d\Bastian.ASF
:FULLY-SPECIFIED
:DEGREES
53
root 2.4491 22.7236 8.0871 721.8 7.45156 -3.81696
lowerback 11.3408 -2.40251 0.6776
upperback 2.7111 -3.0755 0.471468
thorax -3.52696 -1.52425 0.543942
lowerneck -10.6253 -4.00801 -2.10704
upperneck 0.862816 -5.47524 8.92786
head 2.51453 -2.46168 3.01242
rclavicle -1.93815e-014 9.93923e-015
rhumerus -55.6812 8.57011 -86.8881
rradius 93.5706
rwrist -0.47175
rhand -11.3787 22.3099
rfingers 7.12502
rthumb 14.6556 -7.15215
lclavicle -1.93815e-014 9.93923e-015
lhumerus -51.3344 -1.6408 75.6678
lradius 101.289
lwrist 201.436
lhand -27.1496 13.3067
lfingers 7.12502
lthumb -0.564532 43.2857
rfemur -23.2006 2.54627 21.3423
rtibia 38.1677
rfoot -8.31482 -6.01267
rtoes -54.1055
lfemur -28.9831 5.85975 -15.8194
ltibia 45.9512
lfoot 9.46998 -10.3716
ltoes -31.2317
54
root 2.44631 22.6071 8.278 721.673 7.24182 -3.82281
lowerback 11.5188 -2.3488 0.752366
upperback 2.80771 -2.99274 0.491575
thorax -3.52687 -1.48342 0.5164
lowerneck -11.0903 -4.03694 -2.21718
upperneck 1.00113 -5.51731 9.05431
head 2.66103 -2.46443 3.07042
rclavicle 1.64991e-014 -7.55382e-015
rhumerus -55.7865 8.21566 -87.0771
rradius 91.5688
rwrist -0.498046
rhand -11.9627 22.6039
rfingers 7.12502
rthumb 14.093 -6.89821
lclavicle 1.64991e-014 -7.55382e-015
lhumerus -51.9412 -1.28228 75.5992
lradius 99.2852
lwrist 200.816
lhand -26.9946 12.6659
lfingers 7.12502
lthumb -0.414828 42.6452
rfemur -23.4526 2.37574 21.2836
rtibia 38.5398
rfoot -8.47712 -5.70894
rtoes -53.7503
lfemur -28.7799 5.48091 -15.8247
ltibia 45.2992
lfoot 9.76564 -10.1398
ltoes -30.8898
55
root 2.44474 22.4791 8.4742 721.553 6.98752 -3.8621
lowerback 11.5914 -2.2736 0.875786
upperback 2.93367 -2.87744 0.512103
thorax -3.44044 -1.42696 0.451671
lowerneck -11.5845 -4.07294 -2.26456
upperneck 1.12562 -5.57182 9.10866
head 2.80415 -2.47462 3.09067
rclavicle 3.88624e-014 5.1684e-015
rhumerus -55.8534 7.8688 -87.2632
rradius 89.5676
rwrist -0.693856
rhand -12.5774 22.7252
rfingers 7.12502
rthumb 13.5005 -6.8172
lclavicle 3.88624e-014 5.1684e-015
lhumerus -52.3802 -0.913387 75.5177
lradius 97.1294
lwrist 200.198
lhand -26.8784 12.0811
lfingers 7.12502
lthumb -0.302641 42.0607
rfemur -23.689 2.22109 21.2617
rtibia 38.9551
rfoot -8.67781 -5.42482
rtoes -53.5674
lfemur -28.5104 5.07971 -15.7698
ltibia 44.6833
lfoot 9.97674 -9.83214
ltoes -30.9286
56
root 2.44217 22.3406 8.67375 721.452 6.71748 -3.89598
lowerback 11.6061 -2.19494 0.982981
upperback 3.05135 -2.76089 0.52437
thorax -3.33011 -1.3697 0.38508
lowerneck -11.9709 -4.10856 -2.31256
upperneck 1.15727 -5.62132 9.2152
head 2.89801 -2.48542 3.13028
rclavicle -4.8901e-014 -2.78299e-015
rhumerus -55.8895 7.51866 -87.4509
rradius 87.5796
rwrist -1.07309
rhand -13.0481 22.5356
rfingers 7.12502
rthumb 13.0468 -7.03633
lclavicle -4.8901e-014 -2.78299e-015
lhumerus -52.7467 -0.554268 75.475
lradius 94.596
lwrist 199.469
lhand -26.5173 12.2992
lfingers 7.12502
lthumb 0.0460952 42.279
rfemur -23.9442 1.99496 21.2567
rtibia 39.4387
rfoot -8.86553 -5.10387
rtoes -53.807
lfemur -28.2233 4.67335 -15.698
ltibia 44.0976
lfoot 10.1661 -9.48208
ltoes -30.843
57
root 2.43993 22.1921 8.87662 721.425 6.4469 -3.96025
lowerback 11.5283 -2.12571 1.1073
upperback 3.11379 -2.65529 0.565779
thorax -3.2257 -1.31799 0.338573
lowerneck -12.3085 -4.13733 -2.41782
upperneck 1.22523 -5.65659 9.3324
head 2.99768 -2.48932 3.18639
rclavicle 5.96354e-016 -4.77083e-015
rhumerus -55.931 7.24328 -87.6549
rradius 85.5163
rwrist -1.47266
rhand -13.5739 22.2295
rfingers 7.12502
rthumb 12.5399 -7.37423
lclavicle 5.96354e-016 -4.77083e-015
lhumerus -53.1096 -0.164674 75.4468
lradius 91.8629
lwrist 198.826
lhand -26.0718 12.8153
lfingers 7.12502
lthumb 0.476404 42.7945
rfemur -24.3092 1.73358 21.2949
rtibia 39.9855
rfoot -9.03036 -4.76429
rtoes -54.1446
lfemur -27.9792 4.28513 -15.5865
ltibia 43.5386
lfoot 10.2666 -9.16216
ltoes -31.0116
